<svg xmlns="http://www.w3.org/2000/svg" viewBox="0 0 800 1100"><defs><linearGradient id="e" x1="0" y1="0" x2="0" y2="1"><stop stop-color="#f0c98f"/><stop offset="1" stop-color="#8d4c34"/></linearGradient></defs><rect width="800" height="1100" fill="url(#e)"/><path d="M115 150 C230 105 310 178 350 265 C245 225 175 285 115 360 Z" fill="#43513c"/><path d="M685 150 C570 105 490 178 450 265 C555 225 625 285 685 360 Z" fill="#43513c"/><circle cx="255" cy="370" r="48" fill="#f0dfad"/><circle cx="545" cy="370" r="48" fill="#f0dfad"/><circle cx="215" cy="505" r="42" fill="#d9b775"/><circle cx="585" cy="505" r="42" fill="#d9b775"/><circle cx="400" cy="560" r="68" fill="#39292a"/><path d="M333 635 Q400 588 467 635 L525 940 H275 Z" fill="#39292a"/><text x="88" y="1015" font-family="Georgia,serif" font-size="49" fill="#2e2523">learning to stand for oneself</text><text x="88" y="1055" font-family="Arial" font-size="18" letter-spacing="4" fill="#5a2a38">ORIGINAL REVIEW ARTWORK</text></svg>